<svg width="600" height="600" xmlns="http://www.w3.org/2000/svg">
 <g>
  <title>Layer 1</title>
  <path fill="#fff" d="m55.57935,314.18151c61.05805,0 118.46611,22.00735 161.59159,61.93106c43.22466,39.94197 66.98929,93.16141 66.98929,149.7961l94.12621,0c0,-164.51637 -144.78971,-298.33202 -322.72693,-298.33202l0,86.60486l0.01984,0zm0.11902,-153.55835c217.67057,0 394.71513,163.91368 394.71513,365.37683l94.08653,0c0,-249.22184 -219.27736,-451.99995 -488.8215,-451.99995l0,86.62313l0.01984,0l0,-0.00001zm130.13023,304.83378c0,33.148 -29.18012,60.03167 -65.1643,60.03167s-65.1643,-26.88367 -65.1643,-60.03167c0,-33.11148 29.18012,-59.99515 65.1643,-59.99515s65.1643,26.86541 65.1643,59.99515z" id="svg_1" stroke="#000" stroke-width="10"/>
  <text font-weight="bold" fill="#000000" x="267.55754" y="240.39322" id="svg_3" stroke-width="0" font-size="140" font-family="Noto Sans JP" text-anchor="start" xml:space="preserve" stroke="#000" transform="rotate(45 447.021 161.779) matrix(1.03626 0 0 1.02143 -23.6187 -32.0857)">Dweb</text>
  <line fill="none" stroke="#000" x1="171" y1="510" x2="212" y2="553" id="svg_7" stroke-width="10"/>
 </g>

</svg>